<svg id="visual" viewBox="0 0 960 300" width="960" height="300" xmlns="http://www.w3.org/2000/svg" xmlns:xlink="http://www.w3.org/1999/xlink" version="1.1"><rect x="0" y="0" width="960" height="300" fill="#3d5a80"></rect><g transform="translate(489.2773591020872 151.98731467926876)"><path d="M72.9 -106.2C91 -87.3 99.7 -61.2 100.9 -37.5C102.1 -13.8 95.7 7.6 91.3 32.2C86.8 56.8 84.3 84.7 69.4 102.3C54.5 120 27.2 127.5 -1.1 129C-29.4 130.5 -58.8 125.9 -81.3 110.7C-103.8 95.5 -119.4 69.7 -119.6 44.7C-119.8 19.6 -104.5 -4.7 -92 -25.9C-79.6 -47.1 -70.1 -65.2 -55.2 -85.2C-40.4 -105.2 -20.2 -127.1 3.6 -132.1C27.4 -137.1 54.9 -125.2 72.9 -106.2" fill="#001220"></path></g></svg>