<svg id="visual" viewBox="0 0 960 300" width="960" height="300" xmlns="http://www.w3.org/2000/svg" xmlns:xlink="http://www.w3.org/1999/xlink" version="1.1"><rect x="0" y="0" width="960" height="300" fill="#001220"></rect><g transform="translate(474.98005301798185 151.12257583762147)"><path d="M82.4 -109.1C106 -96.2 123.9 -71.1 129.6 -44.3C135.4 -17.4 129 11.2 118.9 37.5C108.8 63.8 95 87.7 74.5 102.4C54.1 117.1 27 122.5 2.5 119.1C-22 115.7 -44.1 103.3 -61.8 87.8C-79.6 72.2 -93.1 53.4 -104.2 31C-115.4 8.7 -124.3 -17.3 -121.1 -43.2C-118 -69 -102.8 -94.8 -80.6 -108.1C-58.4 -121.4 -29.2 -122.2 0.1 -122.3C29.4 -122.5 58.8 -121.9 82.4 -109.1" fill="#3d5a80"></path></g></svg>