<svg id="visual" viewBox="0 0 960 300" width="960" height="300" xmlns="http://www.w3.org/2000/svg" xmlns:xlink="http://www.w3.org/1999/xlink" version="1.1"><rect x="0" y="0" width="960" height="300" fill="#001220"></rect><g transform="translate(481.79078271863966 151.52079722539793)"><path d="M59.6 -83.9C79.3 -67.8 98.6 -53.1 108.6 -32.8C118.6 -12.6 119.2 13.2 109.6 33.5C100.1 53.7 80.3 68.5 60.3 83.5C40.4 98.6 20.2 113.8 0.3 113.4C-19.6 113 -39.2 96.9 -53.9 80.2C-68.7 63.5 -78.6 46.1 -92.5 24.9C-106.5 3.7 -124.6 -21.3 -119 -38.8C-113.5 -56.2 -84.3 -66 -60.5 -80.8C-36.7 -95.6 -18.4 -115.3 0.8 -116.4C20 -117.5 40 -100 59.6 -83.9" fill="#3d5a80"></path></g></svg>