<svg id="visual" viewBox="0 0 960 300" width="960" height="300" xmlns="http://www.w3.org/2000/svg" xmlns:xlink="http://www.w3.org/1999/xlink" version="1.1"><rect x="0" y="0" width="960" height="300" fill="#3d5a80"></rect><g transform="translate(483.01120526156905 154.1118923543279)"><path d="M57.7 -76.9C78.6 -64.2 102.1 -52.5 110.9 -34C119.8 -15.5 114.1 9.9 104.1 31.7C94 53.4 79.6 71.6 61.6 83.9C43.5 96.2 21.7 102.6 -2.5 106.1C-26.8 109.6 -53.7 110.2 -75.9 99.3C-98.1 88.3 -115.6 65.8 -120.1 41.5C-124.6 17.2 -116 -8.9 -108.5 -36.3C-101 -63.7 -94.6 -92.5 -76.7 -106.2C-58.8 -119.9 -29.4 -118.5 -5.5 -110.9C18.4 -103.3 36.7 -89.6 57.7 -76.9" fill="#001220"></path></g></svg>