<svg id="visual" viewBox="0 0 900 600" width="900" height="600" xmlns="http://www.w3.org/2000/svg" xmlns:xlink="http://www.w3.org/1999/xlink" version="1.1"><rect x="0" y="0" width="900" height="600" fill="#001220"></rect><path d="M0 409L18.8 413C37.7 417 75.3 425 112.8 429.3C150.3 433.7 187.7 434.3 225.2 440.3C262.7 446.3 300.3 457.7 337.8 457.3C375.3 457 412.7 445 450.2 442.2C487.7 439.3 525.3 445.7 562.8 448C600.3 450.3 637.7 448.7 675.2 448.2C712.7 447.7 750.3 448.3 787.8 444.5C825.3 440.7 862.7 432.3 881.3 428.2L900 424L900 601L881.3 601C862.7 601 825.3 601 787.8 601C750.3 601 712.7 601 675.2 601C637.7 601 600.3 601 562.8 601C525.3 601 487.7 601 450.2 601C412.7 601 375.3 601 337.8 601C300.3 601 262.7 601 225.2 601C187.7 601 150.3 601 112.8 601C75.3 601 37.7 601 18.8 601L0 601Z" fill="#ee6c4d"></path><path d="M0 473L18.8 475.5C37.7 478 75.3 483 112.8 486.2C150.3 489.3 187.7 490.7 225.2 485C262.7 479.3 300.3 466.7 337.8 462.5C375.3 458.3 412.7 462.7 450.2 460.7C487.7 458.7 525.3 450.3 562.8 453.5C600.3 456.7 637.7 471.3 675.2 474.5C712.7 477.7 750.3 469.3 787.8 464.2C825.3 459 862.7 457 881.3 456L900 455L900 601L881.3 601C862.7 601 825.3 601 787.8 601C750.3 601 712.7 601 675.2 601C637.7 601 600.3 601 562.8 601C525.3 601 487.7 601 450.2 601C412.7 601 375.3 601 337.8 601C300.3 601 262.7 601 225.2 601C187.7 601 150.3 601 112.8 601C75.3 601 37.7 601 18.8 601L0 601Z" fill="#d95979"></path><path d="M0 510L18.8 510C37.7 510 75.3 510 112.8 504.5C150.3 499 187.7 488 225.2 484.3C262.7 480.7 300.3 484.3 337.8 489.5C375.3 494.7 412.7 501.3 450.2 500.7C487.7 500 525.3 492 562.8 491.8C600.3 491.7 637.7 499.3 675.2 505C712.7 510.7 750.3 514.3 787.8 511.8C825.3 509.3 862.7 500.7 881.3 496.3L900 492L900 601L881.3 601C862.7 601 825.3 601 787.8 601C750.3 601 712.7 601 675.2 601C637.7 601 600.3 601 562.8 601C525.3 601 487.7 601 450.2 601C412.7 601 375.3 601 337.8 601C300.3 601 262.7 601 225.2 601C187.7 601 150.3 601 112.8 601C75.3 601 37.7 601 18.8 601L0 601Z" fill="#a95a94"></path><path d="M0 532L18.8 532.8C37.7 533.7 75.3 535.3 112.8 534.2C150.3 533 187.7 529 225.2 526.3C262.7 523.7 300.3 522.3 337.8 525C375.3 527.7 412.7 534.3 450.2 537.5C487.7 540.7 525.3 540.3 562.8 535.8C600.3 531.3 637.7 522.7 675.2 518.5C712.7 514.3 750.3 514.7 787.8 514.2C825.3 513.7 862.7 512.3 881.3 511.7L900 511L900 601L881.3 601C862.7 601 825.3 601 787.8 601C750.3 601 712.7 601 675.2 601C637.7 601 600.3 601 562.8 601C525.3 601 487.7 601 450.2 601C412.7 601 375.3 601 337.8 601C300.3 601 262.7 601 225.2 601C187.7 601 150.3 601 112.8 601C75.3 601 37.7 601 18.8 601L0 601Z" fill="#6e5e96"></path><path d="M0 564L18.8 561.3C37.7 558.7 75.3 553.3 112.8 552.3C150.3 551.3 187.7 554.7 225.2 556.3C262.7 558 300.3 558 337.8 556.5C375.3 555 412.7 552 450.2 549.8C487.7 547.7 525.3 546.3 562.8 546.8C600.3 547.3 637.7 549.7 675.2 552.8C712.7 556 750.3 560 787.8 561.5C825.3 563 862.7 562 881.3 561.5L900 561L900 601L881.3 601C862.7 601 825.3 601 787.8 601C750.3 601 712.7 601 675.2 601C637.7 601 600.3 601 562.8 601C525.3 601 487.7 601 450.2 601C412.7 601 375.3 601 337.8 601C300.3 601 262.7 601 225.2 601C187.7 601 150.3 601 112.8 601C75.3 601 37.7 601 18.8 601L0 601Z" fill="#3d5a80"></path></svg>