<svg id="visual" viewBox="0 0 960 300" width="960" height="300" xmlns="http://www.w3.org/2000/svg" xmlns:xlink="http://www.w3.org/1999/xlink" version="1.1"><rect x="0" y="0" width="960" height="300" fill="#001220"></rect><path d="M0 94L20 98.7C40 103.3 80 112.7 120 111.3C160 110 200 98 240 96.2C280 94.3 320 102.7 360 108.3C400 114 440 117 480 118.7C520 120.3 560 120.7 600 118.7C640 116.7 680 112.3 720 110.2C760 108 800 108 840 109.3C880 110.7 920 113.3 940 114.7L960 116L960 301L940 301C920 301 880 301 840 301C800 301 760 301 720 301C680 301 640 301 600 301C560 301 520 301 480 301C440 301 400 301 360 301C320 301 280 301 240 301C200 301 160 301 120 301C80 301 40 301 20 301L0 301Z" fill="#ee6c4d"></path><path d="M0 143L20 144C40 145 80 147 120 147.3C160 147.7 200 146.3 240 148C280 149.7 320 154.3 360 154.5C400 154.7 440 150.3 480 148.8C520 147.3 560 148.7 600 150.5C640 152.3 680 154.7 720 154.3C760 154 800 151 840 150.2C880 149.3 920 150.7 940 151.3L960 152L960 301L940 301C920 301 880 301 840 301C800 301 760 301 720 301C680 301 640 301 600 301C560 301 520 301 480 301C440 301 400 301 360 301C320 301 280 301 240 301C200 301 160 301 120 301C80 301 40 301 20 301L0 301Z" fill="#d95979"></path><path d="M0 172L20 173C40 174 80 176 120 176.8C160 177.7 200 177.3 240 179.7C280 182 320 187 360 188.7C400 190.3 440 188.7 480 188.2C520 187.7 560 188.3 600 184.8C640 181.3 680 173.7 720 173.8C760 174 800 182 840 182.5C880 183 920 176 940 172.5L960 169L960 301L940 301C920 301 880 301 840 301C800 301 760 301 720 301C680 301 640 301 600 301C560 301 520 301 480 301C440 301 400 301 360 301C320 301 280 301 240 301C200 301 160 301 120 301C80 301 40 301 20 301L0 301Z" fill="#a95a94"></path><path d="M0 234L20 230.5C40 227 80 220 120 219.2C160 218.3 200 223.7 240 224.2C280 224.7 320 220.3 360 218.2C400 216 440 216 480 215.2C520 214.3 560 212.7 600 213.8C640 215 680 219 720 222.3C760 225.7 800 228.3 840 228.8C880 229.3 920 227.7 940 226.8L960 226L960 301L940 301C920 301 880 301 840 301C800 301 760 301 720 301C680 301 640 301 600 301C560 301 520 301 480 301C440 301 400 301 360 301C320 301 280 301 240 301C200 301 160 301 120 301C80 301 40 301 20 301L0 301Z" fill="#6e5e96"></path><path d="M0 263L20 260.8C40 258.7 80 254.3 120 251.2C160 248 200 246 240 244.8C280 243.7 320 243.3 360 244C400 244.7 440 246.3 480 248.7C520 251 560 254 600 255.8C640 257.7 680 258.3 720 257.8C760 257.3 800 255.7 840 255C880 254.3 920 254.7 940 254.8L960 255L960 301L940 301C920 301 880 301 840 301C800 301 760 301 720 301C680 301 640 301 600 301C560 301 520 301 480 301C440 301 400 301 360 301C320 301 280 301 240 301C200 301 160 301 120 301C80 301 40 301 20 301L0 301Z" fill="#3d5a80"></path></svg>