<svg id="visual" viewBox="0 0 960 300" width="960" height="300" xmlns="http://www.w3.org/2000/svg" xmlns:xlink="http://www.w3.org/1999/xlink" version="1.1"><rect x="0" y="0" width="960" height="300" fill="#001220"></rect><path d="M0 189L20 185.5C40 182 80 175 120 177.7C160 180.3 200 192.7 240 193.2C280 193.7 320 182.3 360 182.5C400 182.7 440 194.3 480 197.5C520 200.7 560 195.3 600 194.7C640 194 680 198 720 198C760 198 800 194 840 194C880 194 920 198 940 200L960 202L960 0L940 0C920 0 880 0 840 0C800 0 760 0 720 0C680 0 640 0 600 0C560 0 520 0 480 0C440 0 400 0 360 0C320 0 280 0 240 0C200 0 160 0 120 0C80 0 40 0 20 0L0 0Z" fill="#ee6c4d"></path><path d="M0 166L20 163C40 160 80 154 120 151.2C160 148.3 200 148.7 240 151.8C280 155 320 161 360 160.3C400 159.7 440 152.3 480 152.2C520 152 560 159 600 161.8C640 164.7 680 163.3 720 159.2C760 155 800 148 840 146.2C880 144.3 920 147.7 940 149.3L960 151L960 0L940 0C920 0 880 0 840 0C800 0 760 0 720 0C680 0 640 0 600 0C560 0 520 0 480 0C440 0 400 0 360 0C320 0 280 0 240 0C200 0 160 0 120 0C80 0 40 0 20 0L0 0Z" fill="#d95979"></path><path d="M0 98L20 102C40 106 80 114 120 119.2C160 124.3 200 126.7 240 124.7C280 122.7 320 116.3 360 113.5C400 110.7 440 111.3 480 110.7C520 110 560 108 600 111C640 114 680 122 720 124.7C760 127.3 800 124.7 840 121.8C880 119 920 116 940 114.5L960 113L960 0L940 0C920 0 880 0 840 0C800 0 760 0 720 0C680 0 640 0 600 0C560 0 520 0 480 0C440 0 400 0 360 0C320 0 280 0 240 0C200 0 160 0 120 0C80 0 40 0 20 0L0 0Z" fill="#a95a94"></path><path d="M0 69L20 73.5C40 78 80 87 120 90.3C160 93.7 200 91.3 240 89.5C280 87.7 320 86.3 360 86.5C400 86.7 440 88.3 480 90.2C520 92 560 94 600 94.3C640 94.7 680 93.3 720 92.7C760 92 800 92 840 88.3C880 84.7 920 77.3 940 73.7L960 70L960 0L940 0C920 0 880 0 840 0C800 0 760 0 720 0C680 0 640 0 600 0C560 0 520 0 480 0C440 0 400 0 360 0C320 0 280 0 240 0C200 0 160 0 120 0C80 0 40 0 20 0L0 0Z" fill="#6e5e96"></path><path d="M0 49L20 47.7C40 46.3 80 43.7 120 41C160 38.3 200 35.7 240 36.3C280 37 320 41 360 45C400 49 440 53 480 51C520 49 560 41 600 40.8C640 40.7 680 48.3 720 49.7C760 51 800 46 840 45C880 44 920 47 940 48.5L960 50L960 0L940 0C920 0 880 0 840 0C800 0 760 0 720 0C680 0 640 0 600 0C560 0 520 0 480 0C440 0 400 0 360 0C320 0 280 0 240 0C200 0 160 0 120 0C80 0 40 0 20 0L0 0Z" fill="#3d5a80"></path></svg>