<svg id="visual" viewBox="0 0 960 300" width="960" height="300" xmlns="http://www.w3.org/2000/svg" xmlns:xlink="http://www.w3.org/1999/xlink" version="1.1"><rect x="0" y="0" width="960" height="300" fill="#001220"></rect><path d="M0 223L11.5 227.2C23 231.3 46 239.7 68.8 243.7C91.7 247.7 114.3 247.3 137.2 237C160 226.7 183 206.3 205.8 200.5C228.7 194.7 251.3 203.3 274.2 213.3C297 223.3 320 234.7 342.8 238.8C365.7 243 388.3 240 411.2 232.2C434 224.3 457 211.7 480 211C503 210.3 526 221.7 548.8 226.3C571.7 231 594.3 229 617.2 226.5C640 224 663 221 685.8 214C708.7 207 731.3 196 754.2 191.2C777 186.3 800 187.7 822.8 192.5C845.7 197.3 868.3 205.7 891.2 212C914 218.3 937 222.7 948.5 224.8L960 227L960 0L948.5 0C937 0 914 0 891.2 0C868.3 0 845.7 0 822.8 0C800 0 777 0 754.2 0C731.3 0 708.7 0 685.8 0C663 0 640 0 617.2 0C594.3 0 571.7 0 548.8 0C526 0 503 0 480 0C457 0 434 0 411.2 0C388.3 0 365.7 0 342.8 0C320 0 297 0 274.2 0C251.3 0 228.7 0 205.8 0C183 0 160 0 137.2 0C114.3 0 91.7 0 68.8 0C46 0 23 0 11.5 0L0 0Z" fill="#ee6c4d"></path><path d="M0 120L11.5 120.3C23 120.7 46 121.3 68.8 129.5C91.7 137.7 114.3 153.3 137.2 160.8C160 168.3 183 167.7 205.8 161.3C228.7 155 251.3 143 274.2 142C297 141 320 151 342.8 153.8C365.7 156.7 388.3 152.3 411.2 145.8C434 139.3 457 130.7 480 131C503 131.3 526 140.7 548.8 144.2C571.7 147.7 594.3 145.3 617.2 146.3C640 147.3 663 151.7 685.8 155.3C708.7 159 731.3 162 754.2 155.7C777 149.3 800 133.7 822.8 135.2C845.7 136.7 868.3 155.3 891.2 158.7C914 162 937 150 948.5 144L960 138L960 0L948.5 0C937 0 914 0 891.2 0C868.3 0 845.7 0 822.8 0C800 0 777 0 754.2 0C731.3 0 708.7 0 685.8 0C663 0 640 0 617.2 0C594.3 0 571.7 0 548.8 0C526 0 503 0 480 0C457 0 434 0 411.2 0C388.3 0 365.7 0 342.8 0C320 0 297 0 274.2 0C251.3 0 228.7 0 205.8 0C183 0 160 0 137.2 0C114.3 0 91.7 0 68.8 0C46 0 23 0 11.5 0L0 0Z" fill="#e85f64"></path><path d="M0 80L11.5 74.5C23 69 46 58 68.8 58C91.7 58 114.3 69 137.2 69.2C160 69.3 183 58.7 205.8 57.2C228.7 55.7 251.3 63.3 274.2 64.2C297 65 320 59 342.8 61C365.7 63 388.3 73 411.2 80.2C434 87.3 457 91.7 480 94.7C503 97.7 526 99.3 548.8 94.3C571.7 89.3 594.3 77.7 617.2 70C640 62.3 663 58.7 685.8 63.3C708.7 68 731.3 81 754.2 84.7C777 88.3 800 82.7 822.8 84C845.7 85.3 868.3 93.7 891.2 94.3C914 95 937 88 948.5 84.5L960 81L960 0L948.5 0C937 0 914 0 891.2 0C868.3 0 845.7 0 822.8 0C800 0 777 0 754.2 0C731.3 0 708.7 0 685.8 0C663 0 640 0 617.2 0C594.3 0 571.7 0 548.8 0C526 0 503 0 480 0C457 0 434 0 411.2 0C388.3 0 365.7 0 342.8 0C320 0 297 0 274.2 0C251.3 0 228.7 0 205.8 0C183 0 160 0 137.2 0C114.3 0 91.7 0 68.8 0C46 0 23 0 11.5 0L0 0Z" fill="#da5879"></path></svg>