<svg id="visual" viewBox="0 0 960 100" width="960" height="100" xmlns="http://www.w3.org/2000/svg" xmlns:xlink="http://www.w3.org/1999/xlink" version="1.1"><rect x="0" y="0" width="960" height="100" fill="#001220"></rect><path d="M0 74L11.5 75.3C23 76.7 46 79.3 68.8 80.7C91.7 82 114.3 82 137.2 78.5C160 75 183 68 205.8 66C228.7 64 251.3 67 274.2 70.3C297 73.7 320 77.3 342.8 78.7C365.7 80 388.3 79 411.2 76.5C434 74 457 70 480 69.8C503 69.7 526 73.3 548.8 74.8C571.7 76.3 594.3 75.7 617.2 74.8C640 74 663 73 685.8 70.7C708.7 68.3 731.3 64.7 754.2 63C777 61.3 800 61.7 822.8 63.3C845.7 65 868.3 68 891.2 70.2C914 72.3 937 73.7 948.5 74.3L960 75L960 0L948.5 0C937 0 914 0 891.2 0C868.3 0 845.7 0 822.8 0C800 0 777 0 754.2 0C731.3 0 708.7 0 685.8 0C663 0 640 0 617.2 0C594.3 0 571.7 0 548.8 0C526 0 503 0 480 0C457 0 434 0 411.2 0C388.3 0 365.7 0 342.8 0C320 0 297 0 274.2 0C251.3 0 228.7 0 205.8 0C183 0 160 0 137.2 0C114.3 0 91.7 0 68.8 0C46 0 23 0 11.5 0L0 0Z" fill="#ee6c4d"></path><path d="M0 39L11.5 39.2C23 39.3 46 39.7 68.8 42.5C91.7 45.3 114.3 50.7 137.2 53.2C160 55.7 183 55.3 205.8 53.2C228.7 51 251.3 47 274.2 46.7C297 46.3 320 49.7 342.8 50.7C365.7 51.7 388.3 50.3 411.2 48.2C434 46 457 43 480 43C503 43 526 46 548.8 47.2C571.7 48.3 594.3 47.7 617.2 48C640 48.3 663 49.7 685.8 50.8C708.7 52 731.3 53 754.2 51C777 49 800 44 822.8 44.5C845.7 45 868.3 51 891.2 52C914 53 937 49 948.5 47L960 45L960 0L948.5 0C937 0 914 0 891.2 0C868.3 0 845.7 0 822.8 0C800 0 777 0 754.2 0C731.3 0 708.7 0 685.8 0C663 0 640 0 617.2 0C594.3 0 571.7 0 548.8 0C526 0 503 0 480 0C457 0 434 0 411.2 0C388.3 0 365.7 0 342.8 0C320 0 297 0 274.2 0C251.3 0 228.7 0 205.8 0C183 0 160 0 137.2 0C114.3 0 91.7 0 68.8 0C46 0 23 0 11.5 0L0 0Z" fill="#e85f64"></path><path d="M0 26L11.5 24.2C23 22.3 46 18.7 68.8 18.7C91.7 18.7 114.3 22.3 137.2 22.3C160 22.3 183 18.7 205.8 18.2C228.7 17.7 251.3 20.3 274.2 20.7C297 21 320 19 342.8 19.7C365.7 20.3 388.3 23.7 411.2 26C434 28.3 457 29.7 480 30.7C503 31.7 526 32.3 548.8 30.7C571.7 29 594.3 25 617.2 22.5C640 20 663 19 685.8 20.7C708.7 22.3 731.3 26.7 754.2 27.8C777 29 800 27 822.8 27.3C845.7 27.7 868.3 30.3 891.2 30.5C914 30.7 937 28.3 948.5 27.2L960 26L960 0L948.5 0C937 0 914 0 891.2 0C868.3 0 845.7 0 822.8 0C800 0 777 0 754.2 0C731.3 0 708.7 0 685.8 0C663 0 640 0 617.2 0C594.3 0 571.7 0 548.8 0C526 0 503 0 480 0C457 0 434 0 411.2 0C388.3 0 365.7 0 342.8 0C320 0 297 0 274.2 0C251.3 0 228.7 0 205.8 0C183 0 160 0 137.2 0C114.3 0 91.7 0 68.8 0C46 0 23 0 11.5 0L0 0Z" fill="#da5879"></path></svg>