<svg id="visual" viewBox="0 0 960 150" width="960" height="150" xmlns="http://www.w3.org/2000/svg" xmlns:xlink="http://www.w3.org/1999/xlink" version="1.1"><rect x="0" y="0" width="960" height="150" fill="#001220"></rect><path d="M0 109L11.5 110.5C23 112 46 115 68.8 116.7C91.7 118.3 114.3 118.7 137.2 114.7C160 110.7 183 102.3 205.8 100.3C228.7 98.3 251.3 102.7 274.2 107.5C297 112.3 320 117.7 342.8 119.3C365.7 121 388.3 119 411.2 119C434 119 457 121 480 121C503 121 526 119 548.8 114.5C571.7 110 594.3 103 617.2 100.7C640 98.3 663 100.7 685.8 104C708.7 107.3 731.3 111.7 754.2 114.8C777 118 800 120 822.8 117.8C845.7 115.7 868.3 109.3 891.2 107.2C914 105 937 107 948.5 108L960 109L960 0L948.5 0C937 0 914 0 891.2 0C868.3 0 845.7 0 822.8 0C800 0 777 0 754.2 0C731.3 0 708.7 0 685.8 0C663 0 640 0 617.2 0C594.3 0 571.7 0 548.8 0C526 0 503 0 480 0C457 0 434 0 411.2 0C388.3 0 365.7 0 342.8 0C320 0 297 0 274.2 0C251.3 0 228.7 0 205.8 0C183 0 160 0 137.2 0C114.3 0 91.7 0 68.8 0C46 0 23 0 11.5 0L0 0Z" fill="#ee6c4d"></path><path d="M0 72L11.5 71.5C23 71 46 70 68.8 72C91.7 74 114.3 79 137.2 78.8C160 78.7 183 73.3 205.8 70.3C228.7 67.3 251.3 66.7 274.2 67C297 67.3 320 68.7 342.8 70.3C365.7 72 388.3 74 411.2 74.8C434 75.7 457 75.3 480 74.8C503 74.3 526 73.7 548.8 74.3C571.7 75 594.3 77 617.2 77C640 77 663 75 685.8 74C708.7 73 731.3 73 754.2 72.2C777 71.3 800 69.7 822.8 70.2C845.7 70.7 868.3 73.3 891.2 73.3C914 73.3 937 70.7 948.5 69.3L960 68L960 0L948.5 0C937 0 914 0 891.2 0C868.3 0 845.7 0 822.8 0C800 0 777 0 754.2 0C731.3 0 708.7 0 685.8 0C663 0 640 0 617.2 0C594.3 0 571.7 0 548.8 0C526 0 503 0 480 0C457 0 434 0 411.2 0C388.3 0 365.7 0 342.8 0C320 0 297 0 274.2 0C251.3 0 228.7 0 205.8 0C183 0 160 0 137.2 0C114.3 0 91.7 0 68.8 0C46 0 23 0 11.5 0L0 0Z" fill="#e85f64"></path><path d="M0 36L11.5 38.3C23 40.7 46 45.3 68.8 46.3C91.7 47.3 114.3 44.7 137.2 40.2C160 35.7 183 29.3 205.8 29.8C228.7 30.3 251.3 37.7 274.2 38.2C297 38.7 320 32.3 342.8 31.3C365.7 30.3 388.3 34.7 411.2 34.3C434 34 457 29 480 27.7C503 26.3 526 28.7 548.8 32.2C571.7 35.7 594.3 40.3 617.2 40.5C640 40.7 663 36.3 685.8 36.2C708.7 36 731.3 40 754.2 42.7C777 45.3 800 46.7 822.8 45.7C845.7 44.7 868.3 41.3 891.2 41.2C914 41 937 44 948.5 45.5L960 47L960 0L948.5 0C937 0 914 0 891.2 0C868.3 0 845.7 0 822.8 0C800 0 777 0 754.2 0C731.3 0 708.7 0 685.8 0C663 0 640 0 617.2 0C594.3 0 571.7 0 548.8 0C526 0 503 0 480 0C457 0 434 0 411.2 0C388.3 0 365.7 0 342.8 0C320 0 297 0 274.2 0C251.3 0 228.7 0 205.8 0C183 0 160 0 137.2 0C114.3 0 91.7 0 68.8 0C46 0 23 0 11.5 0L0 0Z" fill="#da5879"></path></svg>