<svg id="visual" viewBox="0 0 960 300" width="960" height="300" xmlns="http://www.w3.org/2000/svg" xmlns:xlink="http://www.w3.org/1999/xlink" version="1.1"><rect x="0" y="0" width="960" height="300" fill="#001220"></rect><path d="M0 88L20 89.5C40 91 80 94 120 96.5C160 99 200 101 240 100.3C280 99.7 320 96.3 360 96.5C400 96.7 440 100.3 480 106.3C520 112.3 560 120.7 600 118.7C640 116.7 680 104.3 720 98.5C760 92.7 800 93.3 840 93.8C880 94.3 920 94.7 940 94.8L960 95L960 301L940 301C920 301 880 301 840 301C800 301 760 301 720 301C680 301 640 301 600 301C560 301 520 301 480 301C440 301 400 301 360 301C320 301 280 301 240 301C200 301 160 301 120 301C80 301 40 301 20 301L0 301Z" fill="#ee6c4d"></path><path d="M0 142L20 144.5C40 147 80 152 120 151.8C160 151.7 200 146.3 240 143.8C280 141.3 320 141.7 360 142.2C400 142.7 440 143.3 480 140.7C520 138 560 132 600 132.5C640 133 680 140 720 145.7C760 151.3 800 155.7 840 156.5C880 157.3 920 154.7 940 153.3L960 152L960 301L940 301C920 301 880 301 840 301C800 301 760 301 720 301C680 301 640 301 600 301C560 301 520 301 480 301C440 301 400 301 360 301C320 301 280 301 240 301C200 301 160 301 120 301C80 301 40 301 20 301L0 301Z" fill="#bc4668"></path><path d="M0 169L20 174.3C40 179.7 80 190.3 120 193.2C160 196 200 191 240 188C280 185 320 184 360 181.5C400 179 440 175 480 175.8C520 176.7 560 182.3 600 187C640 191.7 680 195.3 720 192C760 188.7 800 178.3 840 176.7C880 175 920 182 940 185.5L960 189L960 301L940 301C920 301 880 301 840 301C800 301 760 301 720 301C680 301 640 301 600 301C560 301 520 301 480 301C440 301 400 301 360 301C320 301 280 301 240 301C200 301 160 301 120 301C80 301 40 301 20 301L0 301Z" fill="#73386a"></path><path d="M0 234L20 233.7C40 233.3 80 232.7 120 231.7C160 230.7 200 229.3 240 224.8C280 220.3 320 212.7 360 211.2C400 209.7 440 214.3 480 216C520 217.7 560 216.3 600 216.3C640 216.3 680 217.7 720 217.2C760 216.7 800 214.3 840 212.5C880 210.7 920 209.3 940 208.7L960 208L960 301L940 301C920 301 880 301 840 301C800 301 760 301 720 301C680 301 640 301 600 301C560 301 520 301 480 301C440 301 400 301 360 301C320 301 280 301 240 301C200 301 160 301 120 301C80 301 40 301 20 301L0 301Z" fill="#2c2a4e"></path><path d="M0 264L20 261.8C40 259.7 80 255.3 120 254.7C160 254 200 257 240 256.8C280 256.7 320 253.3 360 254.5C400 255.7 440 261.3 480 261.3C520 261.3 560 255.7 600 253.5C640 251.3 680 252.7 720 254C760 255.3 800 256.7 840 255.5C880 254.3 920 250.7 940 248.8L960 247L960 301L940 301C920 301 880 301 840 301C800 301 760 301 720 301C680 301 640 301 600 301C560 301 520 301 480 301C440 301 400 301 360 301C320 301 280 301 240 301C200 301 160 301 120 301C80 301 40 301 20 301L0 301Z" fill="#001220"></path></svg>